<?xml version="1.0" encoding="UTF-8" standalone="no"?>
<svg
   height="24"
   viewBox="0 -960 960 960"
   width="24"
   version="1.1"
   id="svg2388"
   sodipodi:docname="edit_location_FILL1_wght400_GRAD0_opsz24.svg"
   inkscape:version="1.1.1 (3bf5ae0d25, 2021-09-20)"
   xmlns:inkscape="http://www.inkscape.org/namespaces/inkscape"
   xmlns:sodipodi="http://sodipodi.sourceforge.net/DTD/sodipodi-0.dtd"
   xmlns="http://www.w3.org/2000/svg"
   xmlns:svg="http://www.w3.org/2000/svg">
  <defs
     id="defs2392" />
  <sodipodi:namedview
     id="namedview2390"
     pagecolor="#ffffff"
     bordercolor="#666666"
     borderopacity="1.0"
     inkscape:pageshadow="2"
     inkscape:pageopacity="0.0"
     inkscape:pagecheckerboard="0"
     showgrid="false"
     inkscape:zoom="29.958333"
     inkscape:cx="11.98331"
     inkscape:cy="11.749652"
     inkscape:window-width="2160"
     inkscape:window-height="1316"
     inkscape:window-x="-12"
     inkscape:window-y="-12"
     inkscape:window-maximized="1"
     inkscape:current-layer="svg2388" />
  <path
     d="m554-577-57-57-145 144q-6 6-9 13.5t-3 15.5v21q0 8 6 14t14 6h21q8 0 15.5-3t13.5-9l144-145Zm29-29 28-28q5-5 5-10.5t-5-10.5l-36-36q-5-5-10.5-5t-10.5 5l-28 28 57 57ZM480-186q122-112 181-203.5T720-552q0-109-69.5-178.5T480-800q-101 0-170.5 69.5T240-552q0 71 59 162.5T480-186Zm0 79q-14 0-28-5t-25-15q-65-60-115-117t-83.5-110.5q-33.5-53.5-51-103T160-552q0-150 96.5-239T480-880q127 0 223.5 89T800-552q0 45-17.5 94.5t-51 103Q698-301 648-244T533-127q-11 10-25 15t-28 5Zm0-453Z"
     id="path2386" />
  <path
     style="fill:#bc708e;stroke-width:0.0249796;stroke-linecap:round;stroke-linejoin:round;fill-opacity:1"
     d="M 11.815388,19.14993 C 9.2379547,16.739031 7.652087,14.786899 6.7391015,12.901252 6.3241319,12.044188 6.1180958,11.359817 6.0384111,10.573832 5.9668796,9.8682659 6.0975086,8.7857201 6.3442242,8.039505 6.9155714,6.3114091 8.3095465,4.9065073 10.020434,4.334479 c 1.539233,-0.5146366 3.361831,-0.390963 4.724306,0.3205711 1.631606,0.8520837 2.736954,2.3167725 3.095722,4.1021183 0.298039,1.4831356 0.131199,2.6761006 -0.579564,4.1440836 -0.78438,1.620031 -2.031506,3.245614 -3.982261,5.190731 -0.389003,0.387878 -0.836295,0.823017 -0.993981,0.966975 l -0.286703,0.261741 z M 9.9877025,13.40841 c 0.1619135,-0.07951 0.4673155,-0.373868 2.0194715,-1.946445 1.00579,-1.019023 1.832497,-1.8631974 1.837127,-1.8759441 0.0046,-0.012746 -0.31411,-0.3454418 -0.708312,-0.7393228 L 12.41926,8.1305504 11.041341,9.4946597 C 8.7514927,11.761557 8.6654021,11.850326 8.5792174,12.03338 c -0.064331,0.136636 -0.081325,0.23769 -0.093727,0.557321 -0.018247,0.470269 0.00154,0.593067 0.1177994,0.731239 0.1471578,0.174887 0.2400244,0.198485 0.7430248,0.188812 0.4169578,-0.008 0.4648787,-0.01567 0.6413879,-0.102342 z M 15.376634,8.0321064 C 15.483778,7.8295213 15.430613,7.7420949 14.842868,7.1543498 14.397872,6.7093532 14.281857,6.6107338 14.18154,6.5921845 c -0.07343,-0.013578 -0.152825,-0.00661 -0.200278,0.017572 -0.09745,0.049664 -0.829663,0.7701706 -0.829663,0.8163958 0,0.018502 0.319011,0.3529091 0.708912,0.7431271 l 0.708912,0.7094877 0.378259,-0.375406 c 0.208042,-0.2064735 0.40107,-0.4185383 0.428952,-0.4712547 z"
     id="path2488"
     transform="matrix(40,0,0,40,0,-960)" />
</svg>
