<?xml version="1.0" encoding="UTF-8" standalone="no"?>
<svg
   height="24"
   viewBox="0 -960 960 960"
   width="24"
   version="1.1"
   id="svg842"
   sodipodi:docname="location_on_FILL1_wght400_GRAD0_opsz24.svg"
   inkscape:version="1.1.1 (3bf5ae0d25, 2021-09-20)"
   xmlns:inkscape="http://www.inkscape.org/namespaces/inkscape"
   xmlns:sodipodi="http://sodipodi.sourceforge.net/DTD/sodipodi-0.dtd"
   xmlns="http://www.w3.org/2000/svg"
   xmlns:svg="http://www.w3.org/2000/svg">
  <defs
     id="defs846" />
  <sodipodi:namedview
     id="namedview844"
     pagecolor="#ffffff"
     bordercolor="#666666"
     borderopacity="1.0"
     inkscape:pageshadow="2"
     inkscape:pageopacity="0.0"
     inkscape:pagecheckerboard="0"
     showgrid="false"
     inkscape:zoom="42.333333"
     inkscape:cx="12"
     inkscape:cy="11.834646"
     inkscape:window-width="2160"
     inkscape:window-height="1316"
     inkscape:window-x="-12"
     inkscape:window-y="-12"
     inkscape:window-maximized="1"
     inkscape:current-layer="svg842" />
  <path
     d="M480-186q122-112 181-203.5T720-552q0-109-69.5-178.5T480-800q-101 0-170.5 69.5T240-552q0 71 59 162.5T480-186Zm0 79q-14 0-28-5t-25-15q-65-60-115-117t-83.5-110.5q-33.5-53.5-51-103T160-552q0-150 96.5-239T480-880q127 0 223.5 89T800-552q0 45-17.5 94.5t-51 103Q698-301 648-244T533-127q-11 10-25 15t-28 5Zm0-453Zm0 80q33 0 56.5-23.5T560-560q0-33-23.5-56.5T480-640q-33 0-56.5 23.5T400-560q0 33 23.5 56.5T480-480Z"
     id="path840" />
  <path
     style="fill:#bc708e;fill-opacity:1;stroke-width:0.0176775;stroke-linecap:round;stroke-linejoin:round"
     d="M 11.468504,18.830316 C 8.1715659,15.707169 6.3803831,13.055334 6.0571877,10.818898 6.0074621,10.474809 6.0215813,9.5267478 6.0821652,9.1417323 6.2376401,8.1536761 6.5268397,7.3793601 7.0148422,6.6445403 7.2545268,6.2836304 7.5097196,5.9809875 7.8510393,5.6528623 9.0402163,4.5096554 10.482882,3.9706073 12.212598,4.023178 c 0.535178,0.016266 0.954973,0.073554 1.403357,0.1915118 1.931272,0.5080673 3.512434,2.0407866 4.090576,3.9652538 0.07305,0.2431642 0.163613,0.6548466 0.211576,0.9617887 0.0603,0.3858869 0.07427,1.3342097 0.02471,1.6771657 -0.29013,2.007631 -1.741343,4.318688 -4.415959,7.032413 -0.552394,0.560472 -1.475009,1.448591 -1.522426,1.465505 -0.0089,0.0032 -0.250096,-0.21574 -0.535923,-0.4865 z m 1.015748,-6.876172 c 0.352002,-0.0848 0.632417,-0.241498 0.905566,-0.506047 0.390346,-0.378054 0.582571,-0.796754 0.610912,-1.330676 C 14.01738,9.8036825 13.98435,9.5633348 13.888323,9.299679 13.669395,8.6985567 13.117415,8.2038002 12.484252,8.0411672 c -0.229291,-0.058895 -0.739213,-0.058895 -0.968504,0 -0.633163,0.162633 -1.185143,0.6573895 -1.404071,1.2585118 -0.09602,0.2636558 -0.129061,0.5040035 -0.1124072,0.817742 0.028911,0.544659 0.2260942,0.966165 0.6303982,1.347565 0.275063,0.259481 0.532264,0.402956 0.874269,0.487696 0.250881,0.06216 0.725408,0.06287 0.980315,0.0015 z"
     id="path965"
     transform="matrix(40,0,0,40,0,-960)" />
</svg>
