<?xml version="1.0" encoding="UTF-8" standalone="no"?>
<svg
   height="24"
   viewBox="0 -960 960 960"
   width="24"
   version="1.1"
   id="svg4"
   sodipodi:docname="hide_image.svg"
   inkscape:version="1.1.1 (3bf5ae0d25, 2021-09-20)"
   xmlns:inkscape="http://www.inkscape.org/namespaces/inkscape"
   xmlns:sodipodi="http://sodipodi.sourceforge.net/DTD/sodipodi-0.dtd"
   xmlns="http://www.w3.org/2000/svg"
   xmlns:svg="http://www.w3.org/2000/svg">
  <defs
     id="defs8" />
  <sodipodi:namedview
     id="namedview6"
     pagecolor="#ffffff"
     bordercolor="#666666"
     borderopacity="1.0"
     inkscape:pageshadow="2"
     inkscape:pageopacity="0.0"
     inkscape:pagecheckerboard="0"
     showgrid="false"
     inkscape:zoom="29.958333"
     inkscape:cx="11.566064"
     inkscape:cy="11.98331"
     inkscape:window-width="2160"
     inkscape:window-height="1316"
     inkscape:window-x="-12"
     inkscape:window-y="-12"
     inkscape:window-maximized="1"
     inkscape:current-layer="svg4" />
  <rect
     style="fill:#ffffff;stroke-width:130.772;stroke-linecap:round;stroke-linejoin:round"
     id="rect1390"
     width="960"
     height="960"
     x="-8.8817842e-16"
     y="-960"
     rx="80"
     ry="80" />
  <path
     d="m840-234-80-80v-446H314l-80-80h526q33 0 56.5 23.5T840-760v526ZM200-120q-33 0-56.5-23.5T120-200v-528l-36-36q-11-11-11-28t11-28q11-11 28-11t28 11l680 680q11 11 11 28t-11 28q-11 11-28 11t-28-11l-36-36H200Zm367-160H280q-12 0-18-11t2-21l80-107q6-8 16-8t16 8l74 99 33-44-283-283v447h447l-80-80Zm-30-257ZM424-424Z"
     id="path2" />
</svg>
