<?xml version="1.0" encoding="UTF-8" standalone="no"?>
<svg
   height="24"
   viewBox="0 -960 960 960"
   width="24"
   version="1.1"
   id="svg3367"
   sodipodi:docname="near_me_FILL0_wght400_GRAD0_opsz24.svg"
   inkscape:version="1.1.1 (3bf5ae0d25, 2021-09-20)"
   xmlns:inkscape="http://www.inkscape.org/namespaces/inkscape"
   xmlns:sodipodi="http://sodipodi.sourceforge.net/DTD/sodipodi-0.dtd"
   xmlns="http://www.w3.org/2000/svg"
   xmlns:svg="http://www.w3.org/2000/svg">
  <defs
     id="defs3371" />
  <sodipodi:namedview
     id="namedview3369"
     pagecolor="#ffffff"
     bordercolor="#666666"
     borderopacity="1.0"
     inkscape:pageshadow="2"
     inkscape:pageopacity="0.0"
     inkscape:pagecheckerboard="0"
     showgrid="false"
     inkscape:zoom="29.958333"
     inkscape:cx="11.98331"
     inkscape:cy="11.749652"
     inkscape:window-width="2160"
     inkscape:window-height="1316"
     inkscape:window-x="-12"
     inkscape:window-y="-12"
     inkscape:window-maximized="1"
     inkscape:current-layer="svg3367" />
  <path
     d="M402-402 143-507q-13-5-19-15.5t-6-21.5q0-11 6.5-21.5T144-581l614-228q12-5 23-2t19 11q8 8 11 19t-2 23L581-144q-5 13-15.5 19.5T544-118q-11 0-21.5-6T507-143L402-402Zm140 134 162-436-436 162 196 78 78 196Zm-78-196Z"
     id="path3365" />
  <path
     style="fill:#50597a;stroke-width:0.0249796;stroke-linecap:round;stroke-linejoin:round;fill-opacity:1"
     d="m 12.587554,14.826303 c -0.521351,-1.315802 -0.964466,-2.408922 -0.984701,-2.429156 -0.02023,-0.02023 -1.113354,-0.46335 -2.4291563,-0.984701 -1.315802,-0.521352 -2.3822832,-0.957507 -2.3699583,-0.969235 0.029736,-0.02829 10.7302876,-4.0023694 10.7428676,-3.9897902 0.01267,0.012669 -3.961293,10.7133192 -3.98963,10.7428412 -0.01183,0.01232 -0.44807,-1.054157 -0.969422,-2.369959 z"
     id="path3467"
     transform="matrix(40,0,0,40,0,-960)" />
</svg>
