<?xml version="1.0" encoding="UTF-8" standalone="no"?>
<!-- Created with Inkscape (http://www.inkscape.org/) -->

<svg
  viewBox="0 0 94.416999 17.652001"
  version="1.1"
  id="svg1"
  xml:space="default"
  xmlns="http://www.w3.org/2000/svg"
  xmlns:svg="http://www.w3.org/2000/svg">

  <annotation xml:space="preserve">
    <documentation xml:lang="en">
      <animation>
        <offsetControls>
          <elements>
            <tagName>set</tagName>
          </elements>
          <classList>
            <class>AnimationOffset</class>
          </classList>
          <representativeElement>
            <id>AnimationOffset</id>
          </representativeElement>
          <attributes>
            <dur>
              <explanation>duration of offset</explanation>
              <default>4s</default>
              <usage>
                set animation offset with following javascript command:
                  Array.from(
                    document.getElementsByClassName("AnimationOffset")
                  ).forEach(
                    (s) => {
                      s.attributes.dur.value=`${OFFSET_IN_SECONDS}s`;
                    }
                  );
              </usage>
            </dur>
          </attributes>
        </offsetControls>
        <animationControls>
          <elements>
            <tagName>animate</tagName>
            <tagName>animateTransform</tagName>
          </elements>
          <classList>
            <class>LogoAnimation</class>
          </classList>
          <representativeElement>
            <id>LogoAnimation</id>
          </representativeElement>
        </animationControls>
        <restartAnimation>
          restart animation with following javascript command:
            Array.from(
              document.getElementsByClassName("LogoAnimation")
            ).forEach(
              (a) => {
                a.beginElement();
              }
            );
        </restartAnimation>
      </animation>
    </documentation>
  </annotation>

  <defs id="defs1" />
  <g id="Logo"
    transform="translate(-54.840979,-25.846152)">
    <g id="Plane">
      <g id="Text"
        style="display:inline">
        <path
          d="m 71.960471,41.256411 -1.344792,-2.334125 c 1.264673,-0.346033 2.250357,-1.096421 2.568176,-2.029007 0.431193,-1.265261 -0.62564,-2.127542 -2.479773,-2.127542 h -3.917008 l -2.73286,6.490674 h 2.253283 l 0.846855,-2.131075 h 1.082108 l 1.167655,2.131075 z m -3.628037,-5.095669 h 1.64631 c 0.735851,0 1.153202,0.291593 0.992193,0.732537 -0.162586,0.445265 -0.804274,0.744541 -1.552183,0.744541 h -1.673287 z"
          id="text12"
          style="font-size:13.2292px;line-height:1.25;font-family:Metropolis;-inkscape-font-specification:'Metropolis, Normal';stroke-width:0.264583"
          aria-label="R" />
        <path
          d="m 76.431618,41.378233 c 2.058257,0 4.098901,-1.243993 4.45866,-2.677322 0.348965,-1.390324 -1.001156,-2.522 -2.947186,-2.522 -1.946032,0 -3.954122,1.131676 -4.413508,2.522 -0.473595,1.433329 0.843777,2.677322 2.902034,2.677322 z M 76.8421,39.966217 c -0.896903,0 -1.469475,-0.588253 -1.260755,-1.265306 0.205715,-0.667302 1.110771,-1.222326 1.983924,-1.222326 0.873151,0 1.45551,0.555024 1.273247,1.222326 -0.184925,0.677053 -1.099515,1.265306 -1.996416,1.265306 z"
          id="text11"
          style="font-size:13.2292px;line-height:1.25;font-family:Metropolis;-inkscape-font-specification:'Metropolis, Normal';stroke-width:0.264583"
          aria-label="o" />
        <path
          d="m 86.81649,36.288082 -0.543041,2.827565 -0.0073,-0.02906 c -0.09541,0.496422 -0.676001,0.879627 -1.351927,0.879627 -0.675926,0 -1.058613,-0.392989 -0.938339,-0.947352 l 0.592465,-2.730783 h -2.023325 l -0.741966,3.099625 c -0.276295,1.154245 0.565844,1.990526 2.030373,1.990526 0.857607,0 1.637043,-0.273663 2.143044,-0.716281 l -0.114168,0.594458 h 2.22693 l 0.838003,-4.968328 z"
          id="text10"
          style="font-size:13.2292px;line-height:1.25;font-family:Metropolis;-inkscape-font-specification:'Metropolis, Normal';stroke-width:0.264583"
          aria-label="u" />
        <path
          d="m 93.564185,39.798794 c -0.141002,0.09841 -0.395862,0.167423 -0.642835,0.167423 -0.350962,0 -0.582399,-0.226371 -0.541697,-0.549266 l 0.237261,-1.882228 h 1.35485 l 0.138687,-1.246641 h -1.336394 l 0.160736,-1.275147 h -1.994742 l -0.189319,1.275147 h -0.849297 l -0.196816,1.246641 h 0.861027 l -0.324476,2.18549 c -0.142792,0.961769 0.651025,1.65802 1.930839,1.65802 0.580534,0 1.276246,-0.202864 1.716052,-0.495488 z"
          id="text9"
          style="font-size:13.2292px;line-height:1.25;font-family:Metropolis;-inkscape-font-specification:'Metropolis, Normal';stroke-width:0.264583"
          aria-label="t" />
        <path
          d="m 98.274296,40.005698 c -0.715222,0 -1.222279,-0.344334 -1.390019,-0.851282 h 4.755023 c 0.0505,-1.871769 -1.11726,-2.975505 -3.163084,-2.975505 -1.946031,0 -3.471388,1.029314 -3.620168,2.512399 -0.15569,1.55197 1.287341,2.686923 3.398373,2.686923 1.015934,0 2.203189,-0.334263 2.823339,-0.806309 l -1.261944,-0.998696 c -0.414686,0.264907 -1.021358,0.43247 -1.54152,0.43247 z m 0.160979,-2.573841 c 0.645043,0 1.073009,0.290488 1.229018,0.734442 h -2.677402 c 0.263616,-0.453354 0.803339,-0.734442 1.448384,-0.734442 z"
          id="text8"
          style="font-size:13.2292px;line-height:1.25;font-family:Metropolis;-inkscape-font-specification:'Metropolis, Normal';stroke-width:0.264583"
          aria-label="e" />
        <path
          d="m 109.65065,36.133501 -0.0834,-1.367764 h -6.64295 l -0.0898,6.490674 h 2.25328 l -0.025,-2.545897 h 4.30915 l -0.0815,-1.446483 h -4.24189 l -0.0111,-1.13053 z"
          id="text7"
          style="font-size:13.2292px;line-height:1.25;font-family:Metropolis;-inkscape-font-specification:'Metropolis, Normal';stroke-width:0.264583"
          aria-label="F" />
        <path
          d="m 111.2414,41.256411 h 2.22692 l -0.39071,-3.994239 h -2.13352 z"
          id="text6"
          style="font-size:13.2292px;line-height:1.25;font-family:Metropolis;-inkscape-font-specification:'Metropolis, Normal';stroke-width:0.235962"
          aria-label="i" />
        <path
          d="m 118.42304,36.178911 c -0.81085,0 -1.4621,0.246007 -1.80695,0.649796 l -0.0742,-0.540625 h -2.11076 l 0.56574,4.968329 h 2.22693 l -0.40586,-2.957037 0.0167,0.02857 c -0.0664,-0.483227 0.37683,-0.849353 1.03485,-0.849353 0.65802,0 1.17449,0.375552 1.26214,0.916076 l 0.46406,2.861749 h 2.13468 l -0.59484,-3.222802 c -0.20195,-1.094151 -1.32782,-1.854698 -2.71249,-1.854698 z"
          id="text5"
          style="font-size:13.2292px;line-height:1.25;font-family:Metropolis;-inkscape-font-specification:'Metropolis, Normal';stroke-width:0.264583"
          aria-label="n" />
        <path
          d="m 126.57152,34.660216 0.5648,2.233063 c -0.6268,-0.450085 -1.42814,-0.714368 -2.28889,-0.714368 -1.73396,0 -2.75395,1.029314 -2.46026,2.522 0.30541,1.552295 1.81976,2.677322 3.65372,2.677322 0.91039,0 1.61617,-0.293871 2.03091,-0.786317 l 0.16806,0.664495 h 2.24011 l -1.8235,-6.596195 z m -0.19181,5.306001 c -0.9489,0 -1.741,-0.52976 -1.90231,-1.265306 -0.15671,-0.714599 0.38997,-1.222326 1.31374,-1.222326 0.88581,0 1.62164,0.507727 1.80237,1.222326 0.18604,0.735546 -0.3039,1.265306 -1.2138,1.265306 z"
          id="text4"
          style="font-size:13.2292px;line-height:1.25;font-family:Metropolis;-inkscape-font-specification:'Metropolis, Normal';stroke-width:0.264583"
          aria-label="d" />
        <path
          d="m 134.82867,40.005698 c -0.71522,0 -1.3562,-0.344334 -1.72112,-0.851282 h 4.75504 c -0.6775,-1.871769 -2.27457,-2.975505 -4.32039,-2.975505 -1.94603,0 -3.07105,1.029314 -2.64299,2.512399 0.44793,1.55197 2.33239,2.686923 4.44342,2.686923 1.01594,0 2.07318,-0.334263 2.50973,-0.806309 l -1.65037,-0.998696 c -0.31166,0.264907 -0.85316,0.43247 -1.37332,0.43247 z m -0.84009,-2.573841 c 0.64504,0 1.18599,0.290488 1.51467,0.734442 h -2.6774 c 0.0873,-0.453354 0.51768,-0.734442 1.16273,-0.734442 z"
          id="text3"
          style="font-size:13.2292px;line-height:1.25;font-family:Metropolis;-inkscape-font-specification:'Metropolis, Normal';stroke-width:0.264583"
          aria-label="e" />
        <path
          d="m 140.38595,37.171059 -0.351,-0.882977 h -2.11076 l 1.85881,4.968329 h 2.22693 l -0.92401,-2.324476 0.0205,0.0193 c -0.36113,-0.908165 0.22428,-1.472653 1.55299,-1.472653 l -0.54721,-1.299675 c -0.93559,0 -1.54607,0.374095 -1.72628,0.992149 z"
          id="text2"
          style="font-size:13.2292px;line-height:1.25;font-family:Metropolis;-inkscape-font-specification:'Metropolis, Normal';stroke-width:0.264583"
          aria-label="r" />
      </g>
      <path
        style="display:inline;fill:none;stroke:#ffffff;stroke-width:1.465;stroke-linecap:round;stroke-linejoin:miter;stroke-dasharray:90.08;stroke-opacity:1"
        d="m 59.001035,42.764588 h 44.794795 c 0,0 4.25806,0.261055 6.19676,-4.622015 1.89513,-4.773315 5.9312,-4.518805 5.9312,-4.518805 h 29.11403"
        id="RouteWhitespace">
        <set
          id="AnimationOffset"
          class="AnimationOffset"
          attributeName="opacity"
          to="0"
          begin="0"
          dur="4s" />
        <animate
          class="LogoAnimation"
          attributeName="stroke-dashoffset"
          values="90.08;90.08;0"
          begin="AnimationOffset.end"
          dur="3s"
          calcMode="spline"
          keyTimes="0;0.67;1"
          keySplines="0 0 1 1;0.7 0 0.3 1"
          repeatCount="1"
          restart="whenNotActive" />
      </path>
      <path
        style="display:inline;fill:none;stroke:#50597a;stroke-width:0.665;stroke-linecap:round;stroke-linejoin:miter;stroke-dasharray:90.08;stroke-opacity:1"
        d="m 59.001035,42.764588 h 44.794795 c 0,0 4.25806,0.261055 6.19676,-4.622015 1.89513,-4.773315 5.9312,-4.518805 5.9312,-4.518805 h 29.11403"
        id="Route">
        <set
          class="AnimationOffset"
          attributeName="opacity"
          to="0"
          begin="0"
          dur="4s" />
        <animate
          id="LogoAnimation"
          class="LogoAnimation"
          attributeName="stroke-dashoffset"
          values="90.08;90.08;0"
          begin="AnimationOffset.end"
          dur="3s"
          calcMode="spline"
          keyTimes="0;0.67;1"
          keySplines="0 0 1 1;0.7 0 0.3 1"
          repeatCount="1"
          restart="whenNotActive" />
      </path>
      <path
        d="m 111.86919,35.972315 c 0.40906,-0.0016 0.82345,-0.339029 0.7935,-0.629941 -0.0294,-0.289027 -0.43094,-0.607467 -0.89965,-0.607467 -0.47827,0 -0.83946,0.281992 -0.8147,0.607467 0.026,0.34187 0.51177,0.631607 0.92085,0.629941 z"
        id="Waypoint"
        style="font-size:13.2292px;line-height:1.25;font-family:Metropolis;-inkscape-font-specification:'Metropolis, Normal';display:inline;fill:#50597a;fill-opacity:1;stroke:#000000;stroke-width:0.746;stroke-linejoin:miter;stroke-dasharray:none;stroke-opacity:1"
        aria-label="i">
        <set
          class="AnimationOffset"
          attributeName="fill-opacity"
          to="0"
          begin="0"
          dur="4s" />
        <animate
          class="LogoAnimation"
          attributeName="fill-opacity"
          values="0;1"
          begin="AnimationOffset.end"
          dur="3s"
          calcMode="discrete"
          keyTimes="0;0.85"
          repeatCount="1"
          restart="whenNotActive" />
      </path>
    </g>
    <g id="MarkerDestination">
      <set
        class="AnimationOffset"
        attributeName="opacity"
        to="0"
        begin="0"
        dur="4s" />
      <g transform-origin="145.14 32.95">
        <g
          transform="matrix(0.00661458,0,0,0.00661458,141.96659,33.666982)"
          style="display:inline">
          <path
            d="M 480,-186 Q 602,-298 661,-389.5 720,-481 720,-552 720,-661 650.5,-730.5 581,-800 480,-800 379,-800 309.5,-730.5 240,-661 240,-552 q 0,71 59,162.5 59,91.5 181,203.5 z m 0,79 q -14,0 -28,-5 -14,-5 -25,-15 -65,-60 -115,-117 -50,-57 -83.5,-110.5 -33.5,-53.5 -51,-103 Q 160,-507 160,-552 q 0,-150 96.5,-239 96.5,-89 223.5,-89 127,0 223.5,89 96.5,89 96.5,239 0,45 -17.5,94.5 -17.5,49.5 -51,103 Q 698,-301 648,-244 q -50,57 -115,117 -11,10 -25,15 -14,5 -28,5 z m 0,-453 z m 0,80 q 33,0 56.5,-23.5 Q 560,-527 560,-560 560,-593 536.5,-616.5 513,-640 480,-640 q -33,0 -56.5,23.5 -23.5,23.5 -23.5,56.5 0,33 23.5,56.5 23.5,23.5 56.5,23.5 z"
            id="path840" />
          <path
            style="fill:#bc708e;fill-opacity:1;stroke-width:0.0176775;stroke-linecap:round;stroke-linejoin:round"
            d="M 11.468504,18.830316 C 8.1715659,15.707169 6.3803831,13.055334 6.0571877,10.818898 6.0074621,10.474809 6.0215813,9.5267478 6.0821652,9.1417323 6.2376401,8.1536761 6.5268397,7.3793601 7.0148422,6.6445403 7.2545268,6.2836304 7.5097196,5.9809875 7.8510393,5.6528623 9.0402163,4.5096554 10.482882,3.9706073 12.212598,4.023178 c 0.535178,0.016266 0.954973,0.073554 1.403357,0.1915118 1.931272,0.5080673 3.512434,2.0407866 4.090576,3.9652538 0.07305,0.2431642 0.163613,0.6548466 0.211576,0.9617887 0.0603,0.3858869 0.07427,1.3342097 0.02471,1.6771657 -0.29013,2.007631 -1.741343,4.318688 -4.415959,7.032413 -0.552394,0.560472 -1.475009,1.448591 -1.522426,1.465505 -0.0089,0.0032 -0.250096,-0.21574 -0.535923,-0.4865 z m 1.015748,-6.876172 c 0.352002,-0.0848 0.632417,-0.241498 0.905566,-0.506047 0.390346,-0.378054 0.582571,-0.796754 0.610912,-1.330676 C 14.01738,9.8036825 13.98435,9.5633348 13.888323,9.299679 13.669395,8.6985567 13.117415,8.2038002 12.484252,8.0411672 c -0.229291,-0.058895 -0.739213,-0.058895 -0.968504,0 -0.633163,0.162633 -1.185143,0.6573895 -1.404071,1.2585118 -0.09602,0.2636558 -0.129061,0.5040035 -0.1124072,0.817742 0.028911,0.544659 0.2260942,0.966165 0.6303982,1.347565 0.275063,0.259481 0.532264,0.402956 0.874269,0.487696 0.250881,0.06216 0.725408,0.06287 0.980315,0.0015 z"
            id="path965"
            transform="matrix(40,0,0,40,0,-960)" />
        </g>
        <animate
          class="LogoAnimation"
          attributeName="opacity"
          values="0;0;1;1"
          begin="AnimationOffset.end"
          dur="3s"
          calcMode="spline"
          keyTimes="0;0.33;0.45;1"
          keySplines="0 0 1 1;0.55 0 0.8 1;0 0 1 1"
          repeatCount="1"
          restart="whenNotActive" />
        <animateTransform
          class="LogoAnimation"
          attributeName="transform"
          type="scale"
          values="0;0;1.1;1;1"
          begin="AnimationOffset.end"
          dur="3s"
          calcMode="spline"
          keyTimes="0;0.33;0.39;0.45;1"
          keySplines="0 0 1 1;0.2 0 0.15 1;1 0 0.85 1; 0 0 1 1"
          repeatCount="1"
          restart="whenNotActive" />
      </g>
      <animateTransform
        class="LogoAnimation"
        attributeName="transform"
        type="translate"
        values="0 0;0 0;0 -1.5;0 0;0 0"
        begin="AnimationOffset.end"
        dur="3s"
        calcMode="spline"
        keyTimes="0;0.33;0.39;0.45;1"
        keySplines="0 0 1 1;0.2 0 0.15 1;1 0 0.85 1; 0 0 1 1"
        repeatCount="1"
        restart="whenNotActive" />
    </g>
    <g id="MarkerOrigin">
      <set
        class="AnimationOffset"
        attributeName="opacity"
        to="0"
        begin="0"
        dur="4s" />
      <g transform-origin="59.1 41.9">
        <g
          style="display:inline"
          transform="matrix(0.00691458,0,0,0.00691458,55.782646,42.748954)">
          <path
            d="M 480,-186 Q 602,-298 661,-389.5 720,-481 720,-552 720,-661 650.5,-730.5 581,-800 480,-800 379,-800 309.5,-730.5 240,-661 240,-552 q 0,71 59,162.5 59,91.5 181,203.5 z m 0,79 q -14,0 -28,-5 -14,-5 -25,-15 -65,-60 -115,-117 -50,-57 -83.5,-110.5 -33.5,-53.5 -51,-103 Q 160,-507 160,-552 q 0,-150 96.5,-239 96.5,-89 223.5,-89 127,0 223.5,89 96.5,89 96.5,239 0,45 -17.5,94.5 -17.5,49.5 -51,103 Q 698,-301 648,-244 q -50,57 -115,117 -11,10 -25,15 -14,5 -28,5 z m 0,-453 z m 0,80 q 33,0 56.5,-23.5 Q 560,-527 560,-560 560,-593 536.5,-616.5 513,-640 480,-640 q -33,0 -56.5,23.5 -23.5,23.5 -23.5,56.5 0,33 23.5,56.5 23.5,23.5 56.5,23.5 z"
            id="path840-5" />
          <path
            style="fill:#f0a868;fill-opacity:1;stroke-width:0.0176775;stroke-linecap:round;stroke-linejoin:round"
            d="M 11.468504,18.830316 C 8.1715659,15.707169 6.3803831,13.055334 6.0571877,10.818898 6.0074621,10.474809 6.0215813,9.5267478 6.0821652,9.1417323 6.2376401,8.1536761 6.5268397,7.3793601 7.0148422,6.6445403 7.2545268,6.2836304 7.5097196,5.9809875 7.8510393,5.6528623 9.0402163,4.5096554 10.482882,3.9706073 12.212598,4.023178 c 0.535178,0.016266 0.954973,0.073554 1.403357,0.1915118 1.931272,0.5080673 3.512434,2.0407866 4.090576,3.9652538 0.07305,0.2431642 0.163613,0.6548466 0.211576,0.9617887 0.0603,0.3858869 0.07427,1.3342097 0.02471,1.6771657 -0.29013,2.007631 -1.741343,4.318688 -4.415959,7.032413 -0.552394,0.560472 -1.475009,1.448591 -1.522426,1.465505 -0.0089,0.0032 -0.250096,-0.21574 -0.535923,-0.4865 z m 1.015748,-6.876172 c 0.352002,-0.0848 0.632417,-0.241498 0.905566,-0.506047 0.390346,-0.378054 0.582571,-0.796754 0.610912,-1.330676 C 14.01738,9.8036825 13.98435,9.5633348 13.888323,9.299679 13.669395,8.6985567 13.117415,8.2038002 12.484252,8.0411672 c -0.229291,-0.058895 -0.739213,-0.058895 -0.968504,0 -0.633163,0.162633 -1.185143,0.6573895 -1.404071,1.2585118 -0.09602,0.2636558 -0.129061,0.5040035 -0.1124072,0.817742 0.028911,0.544659 0.2260942,0.966165 0.6303982,1.347565 0.275063,0.259481 0.532264,0.402956 0.874269,0.487696 0.250881,0.06216 0.725408,0.06287 0.980315,0.0015 z"
            id="path965-7"
            transform="matrix(40,0,0,40,0,-960)" />
        </g>
        <animate
          class="LogoAnimation"
          attributeName="opacity"
          values="0;1;1"
          begin="AnimationOffset.end"
          dur="3s"
          calcMode="spline"
          keyTimes="0;0.12;1"
          keySplines="0.55 0 0.8 1;0 0 1 1"
          repeatCount="1"
          restart="whenNotActive" />
        <animateTransform
          class="LogoAnimation"
          attributeName="transform"
          type="scale"
          values="0;1.1;1;1"
          begin="AnimationOffset.end"
          dur="3s"
          calcMode="spline"
          keyTimes="0;0.06;0.12;1"
          keySplines="0.2 0 0.15 1;1 0 0.85 1; 0 0 1 1"
          repeatCount="1"
          restart="whenNotActive" />
      </g>
      <animateTransform
        class="LogoAnimation"
        attributeName="transform"
        type="translate"
        values="0 0;0 -1.5;0 0;0 0"
        begin="AnimationOffset.end"
        dur="3s"
        calcMode="spline"
        keyTimes="0;0.06;0.12;1"
        keySplines="0.2 0 0.15 1;1 0 0.85 1; 0 0 1 1"
        repeatCount="1"
        restart="whenNotActive" />
    </g>
  </g>
</svg>