<?xml version="1.0" encoding="UTF-8" standalone="no"?>
<svg
   height="24"
   viewBox="0 -960 960 960"
   width="24"
   version="1.1"
   id="svg2550"
   sodipodi:docname="where_to_vote_FILL1_wght400_GRAD0_opsz24.svg"
   inkscape:version="1.1.1 (3bf5ae0d25, 2021-09-20)"
   xmlns:inkscape="http://www.inkscape.org/namespaces/inkscape"
   xmlns:sodipodi="http://sodipodi.sourceforge.net/DTD/sodipodi-0.dtd"
   xmlns="http://www.w3.org/2000/svg"
   xmlns:svg="http://www.w3.org/2000/svg">
  <defs
     id="defs2554" />
  <sodipodi:namedview
     id="namedview2552"
     pagecolor="#ffffff"
     bordercolor="#666666"
     borderopacity="1.0"
     inkscape:pageshadow="2"
     inkscape:pageopacity="0.0"
     inkscape:pagecheckerboard="0"
     showgrid="false"
     inkscape:zoom="29.958333"
     inkscape:cx="11.98331"
     inkscape:cy="11.749652"
     inkscape:window-width="2160"
     inkscape:window-height="1316"
     inkscape:window-x="-12"
     inkscape:window-y="-12"
     inkscape:window-maximized="1"
     inkscape:current-layer="svg2550" />
  <path
     d="m438-540-28-28q-12-12-28-12t-28 12q-12 12-12 28.5t12 28.5l56 57q12 12 28 12t28-12l142-142q12-12 12-28.5T608-653q-12-12-28.5-12T551-653L438-540Zm42 354q122-112 181-203.5T720-552q0-109-69.5-178.5T480-800q-101 0-170.5 69.5T240-552q0 71 59 162.5T480-186Zm0 79q-14 0-28-5t-25-15q-65-60-115-117t-83.5-110.5q-33.5-53.5-51-103T160-552q0-150 96.5-239T480-880q127 0 223.5 89T800-552q0 45-17.5 94.5t-51 103Q698-301 648-244T533-127q-11 10-25 15t-28 5Zm0-453Z"
     id="path2548" />
  <path
     style="fill:#f0a868;stroke-width:0.0249796;stroke-linecap:round;stroke-linejoin:round"
     d="M 11.815388,19.14993 C 9.2379547,16.739031 7.652087,14.786899 6.7391015,12.901252 6.3241319,12.044188 6.1180958,11.359817 6.0384111,10.573832 5.9668796,9.8682659 6.0975086,8.7857201 6.3442242,8.039505 6.9155714,6.3114091 8.3095465,4.9065073 10.020434,4.334479 c 1.539233,-0.5146366 3.361831,-0.390963 4.724306,0.3205711 1.631606,0.8520837 2.736954,2.3167725 3.095722,4.1021183 0.298039,1.4831356 0.131199,2.6761006 -0.579564,4.1440836 -0.78438,1.620031 -2.031506,3.245614 -3.982261,5.190731 -0.389003,0.387878 -0.836295,0.823017 -0.993981,0.966975 l -0.286703,0.261741 z M 11.349096,12.882473 C 11.56073,12.787537 15.284905,9.0735802 15.413793,8.8289291 15.531291,8.605897 15.539244,8.2100408 15.431025,7.9711924 15.346245,7.7840769 15.11974,7.5488495 14.94435,7.4657781 14.676148,7.3387467 14.304893,7.3378404 14.029224,7.463545 13.947876,7.5006392 13.374973,8.0466926 12.42602,8.9916137 L 10.949397,10.461961 10.538001,10.055247 C 10.046511,9.5693494 9.919423,9.4979039 9.5465925,9.4979039 c -0.4197493,0 -0.7455066,0.2134274 -0.9253546,0.6062671 -0.073735,0.161058 -0.082217,0.21697 -0.069117,0.455565 0.010784,0.196404 0.036352,0.313711 0.092018,0.422183 0.1151054,0.224299 1.6669041,1.778263 1.8836371,1.886265 0.219218,0.109241 0.595074,0.11578 0.82132,0.01429 z"
     id="path2650"
     transform="matrix(40,0,0,40,0,-960)" />
  <path
     style="fill:#f0a868;stroke-width:0.0249796;stroke-linecap:round;stroke-linejoin:round"
     d="M 11.339206,18.667935 C 9.7496211,17.151524 8.3994683,15.597692 7.5983074,14.362698 6.9839507,13.415663 6.4970943,12.431972 6.2796615,11.698379 6.0106459,10.790753 5.9735633,9.8848236 6.1630576,8.8497413 6.3857086,7.6335465 6.9320134,6.6064613 7.8253054,5.7246175 8.2738,5.2818708 8.6883932,4.981154 9.2461752,4.6940182 10.175943,4.2153909 11.137792,4.0078275 12.233658,4.0493302 c 1.51709,0.057455 2.779196,0.5776932 3.867745,1.5942782 1.544253,1.4421623 2.21041,3.7837054 1.669364,5.8678156 -0.436749,1.682354 -1.844196,3.82162 -3.923025,5.962846 -0.505903,0.521089 -1.505052,1.507705 -1.749786,1.727839 l -0.102322,0.09204 z m -0.112331,-5.73312 c 0.163125,-0.02674 0.440327,-0.276659 1.869934,-1.685858 1.201947,-1.184789 2.268871,-2.2966562 2.344895,-2.4436704 0.08079,-0.156232 0.09738,-0.5165011 0.03385,-0.7350399 C 15.412573,7.8535951 15.163224,7.5539135 14.969424,7.4619492 14.739188,7.3526954 14.482303,7.3268091 14.234701,7.387911 13.954424,7.457076 13.951971,7.45924 12.241934,9.1453722 L 10.948402,10.420822 10.557986,10.047995 C 10.077101,9.5887754 9.9592269,9.5159379 9.6557821,9.4904982 9.3341568,9.4635345 9.102147,9.5358903 8.8854178,9.7307486 8.6423456,9.9492915 8.5451544,10.163289 8.5453878,10.479433 c 2.537e-4,0.345877 0.042072,0.469184 0.2412345,0.711337 0.2286898,0.278055 1.4796027,1.519619 1.6468427,1.634534 0.07426,0.05103 0.212699,0.104398 0.315374,0.121583 0.180794,0.03026 0.226926,0.0291 0.478036,-0.01207 z"
     id="path2890"
     transform="matrix(40,0,0,40,0,-960)" />
  <path
     style="fill:#bc708e;stroke-width:0.0249796;stroke-linecap:round;stroke-linejoin:round;fill-opacity:1"
     d="M 11.304019,18.63324 C 8.3097859,15.771118 6.5867555,13.26939 6.1352066,11.12846 6.0347639,10.65223 6.0265718,9.6295754 6.1187679,9.0763387 6.3461006,7.712194 6.8626728,6.6891878 7.7943814,5.7579972 8.9757022,4.5773331 10.474897,3.9937652 12.183588,4.0494802 c 1.092394,0.03562 1.978756,0.2775877 2.810956,0.7673637 1.683223,0.9906292 2.694828,2.5802819 2.933479,4.6097169 0.054,0.4592031 0.0221,1.2469612 -0.06907,1.7055672 -0.327797,1.648894 -1.49407,3.592922 -3.451245,5.752789 -0.41444,0.457361 -2.093638,2.144301 -2.311226,2.321883 l -0.1038,0.08471 z m -0.08688,-5.697451 c 0.08182,-0.01267 0.190078,-0.08116 0.350487,-0.221741 0.435765,-0.38191 2.228727,-2.147803 3.042287,-2.9963562 C 15.36561,8.9294871 15.425703,8.8578459 15.475854,8.685332 15.540559,8.4627548 15.52393,8.1466261 15.43799,7.9655209 15.340456,7.7599841 15.106099,7.5266487 14.913361,7.4431781 14.708456,7.3544388 14.34736,7.3376689 14.14178,7.4073446 13.950692,7.4721093 13.589505,7.8082221 11.777418,9.6075685 L 10.954001,10.425196 10.548949,10.040999 C 10.039089,9.5573895 9.9263379,9.4962382 9.5465925,9.4973641 c -0.3394543,10e-4 -0.5283463,0.079951 -0.7395563,0.309087 -0.2175214,0.2359829 -0.2718926,0.3968099 -0.255195,0.7548549 0.00887,0.190303 0.034285,0.341883 0.068021,0.405773 0.1359354,0.257432 1.6557148,1.776765 1.9081918,1.907632 0.0533,0.02762 0.165951,0.06131 0.250348,0.07486 0.151042,0.02425 0.203706,0.0226 0.438734,-0.01379 z"
     id="path3005"
     transform="matrix(40,0,0,40,0,-960)" />
</svg>
