<?xml version="1.0" encoding="UTF-8" standalone="no"?>
<svg
   height="24"
   viewBox="0 -960 960 960"
   width="24"
   version="1.1"
   id="svg2550"
   sodipodi:docname="where_to_vote_FILL0_wght400_GRAD0_opsz24.svg"
   inkscape:version="1.1.1 (3bf5ae0d25, 2021-09-20)"
   xmlns:inkscape="http://www.inkscape.org/namespaces/inkscape"
   xmlns:sodipodi="http://sodipodi.sourceforge.net/DTD/sodipodi-0.dtd"
   xmlns="http://www.w3.org/2000/svg"
   xmlns:svg="http://www.w3.org/2000/svg">
  <defs
     id="defs2554" />
  <sodipodi:namedview
     id="namedview2552"
     pagecolor="#ffffff"
     bordercolor="#666666"
     borderopacity="1.0"
     inkscape:pageshadow="2"
     inkscape:pageopacity="0.0"
     inkscape:pagecheckerboard="0"
     showgrid="false"
     inkscape:zoom="29.958333"
     inkscape:cx="11.98331"
     inkscape:cy="11.749652"
     inkscape:window-width="2160"
     inkscape:window-height="1316"
     inkscape:window-x="-12"
     inkscape:window-y="-12"
     inkscape:window-maximized="1"
     inkscape:current-layer="svg2550" />
  <path
     d="m438-540-28-28q-12-12-28-12t-28 12q-12 12-12 28.5t12 28.5l56 57q12 12 28 12t28-12l142-142q12-12 12-28.5T608-653q-12-12-28.5-12T551-653L438-540Zm42 354q122-112 181-203.5T720-552q0-109-69.5-178.5T480-800q-101 0-170.5 69.5T240-552q0 71 59 162.5T480-186Zm0 79q-14 0-28-5t-25-15q-65-60-115-117t-83.5-110.5q-33.5-53.5-51-103T160-552q0-150 96.5-239T480-880q127 0 223.5 89T800-552q0 45-17.5 94.5t-51 103Q698-301 648-244T533-127q-11 10-25 15t-28 5Zm0-453Z"
     id="path2548" />
  <path
     style="fill:#f0a868;stroke-width:0.0249796;stroke-linecap:round;stroke-linejoin:round"
     d="M 11.815388,19.14993 C 9.2379547,16.739031 7.652087,14.786899 6.7391015,12.901252 6.3241319,12.044188 6.1180958,11.359817 6.0384111,10.573832 5.9668796,9.8682659 6.0975086,8.7857201 6.3442242,8.039505 6.9155714,6.3114091 8.3095465,4.9065073 10.020434,4.334479 c 1.539233,-0.5146366 3.361831,-0.390963 4.724306,0.3205711 1.631606,0.8520837 2.736954,2.3167725 3.095722,4.1021183 0.298039,1.4831356 0.131199,2.6761006 -0.579564,4.1440836 -0.78438,1.620031 -2.031506,3.245614 -3.982261,5.190731 -0.389003,0.387878 -0.836295,0.823017 -0.993981,0.966975 l -0.286703,0.261741 z M 11.349096,12.882473 C 11.56073,12.787537 15.284905,9.0735802 15.413793,8.8289291 15.531291,8.605897 15.539244,8.2100408 15.431025,7.9711924 15.346245,7.7840769 15.11974,7.5488495 14.94435,7.4657781 14.676148,7.3387467 14.304893,7.3378404 14.029224,7.463545 13.947876,7.5006392 13.374973,8.0466926 12.42602,8.9916137 L 10.949397,10.461961 10.538001,10.055247 C 10.046511,9.5693494 9.919423,9.4979039 9.5465925,9.4979039 c -0.4197493,0 -0.7455066,0.2134274 -0.9253546,0.6062671 -0.073735,0.161058 -0.082217,0.21697 -0.069117,0.455565 0.010784,0.196404 0.036352,0.313711 0.092018,0.422183 0.1151054,0.224299 1.6669041,1.778263 1.8836371,1.886265 0.219218,0.109241 0.595074,0.11578 0.82132,0.01429 z"
     id="path2650"
     transform="matrix(40,0,0,40,0,-960)" />
</svg>
