<?xml version="1.0" encoding="UTF-8" standalone="no"?>
<svg
   height="24"
   viewBox="0 -960 960 960"
   width="24"
   version="1.1"
   id="svg2704"
   sodipodi:docname="not_listed_location_FILL0_wght400_GRAD0_opsz24.svg"
   inkscape:version="1.1.1 (3bf5ae0d25, 2021-09-20)"
   xmlns:inkscape="http://www.inkscape.org/namespaces/inkscape"
   xmlns:sodipodi="http://sodipodi.sourceforge.net/DTD/sodipodi-0.dtd"
   xmlns="http://www.w3.org/2000/svg"
   xmlns:svg="http://www.w3.org/2000/svg">
  <defs
     id="defs2708" />
  <sodipodi:namedview
     id="namedview2706"
     pagecolor="#ffffff"
     bordercolor="#666666"
     borderopacity="1.0"
     inkscape:pageshadow="2"
     inkscape:pageopacity="0.0"
     inkscape:pagecheckerboard="0"
     showgrid="false"
     inkscape:zoom="29.958333"
     inkscape:cx="11.98331"
     inkscape:cy="11.749652"
     inkscape:window-width="2160"
     inkscape:window-height="1316"
     inkscape:window-x="-12"
     inkscape:window-y="-12"
     inkscape:window-maximized="1"
     inkscape:current-layer="svg2704" />
  <path
     d="M480-320q17 0 29.5-12.5T522-362q0-17-12.5-29.5T480-404q-17 0-29.5 12.5T438-362q0 17 12.5 29.5T480-320Zm114-298q0-47-31-74.5T485-720q-46 0-77.5 21T376-651q0 10 4 16.5t12 9.5q11 4 21.5-.5T434-641q9-11 21-16t26-5q23 0 38 12.5t15 31.5q0 18-8.5 29T497-561q-25 21-35 43t-10 40q0 16 7.5 25t21.5 9q13 0 21-8t10-23q2-15 13.5-29.5T550-532q23-23 33.5-44.5T594-618ZM480-186q122-112 181-203.5T720-552q0-109-69.5-178.5T480-800q-101 0-170.5 69.5T240-552q0 71 59 162.5T480-186Zm0 79q-14 0-28-5t-25-15q-65-60-115-117t-83.5-110.5q-33.5-53.5-51-103T160-552q0-150 96.5-239T480-880q127 0 223.5 89T800-552q0 45-17.5 94.5t-51 103Q698-301 648-244T533-127q-11 10-25 15t-28 5Zm0-453Z"
     id="path2702" />
  <path
     style="fill:#f0a868;stroke-width:0.0249796;stroke-linecap:round;stroke-linejoin:round"
     d="M 11.815388,19.14993 C 9.2379547,16.739031 7.652087,14.786899 6.7391015,12.901252 6.3241319,12.044188 6.1180958,11.359817 6.0384111,10.573832 5.9668796,9.8682659 6.0975086,8.7857201 6.3442242,8.039505 6.9155714,6.3114091 8.3095465,4.9065073 10.020434,4.334479 c 1.539233,-0.5146366 3.361831,-0.390963 4.724306,0.3205711 1.631606,0.8520837 2.736954,2.3167725 3.095722,4.1021183 0.298039,1.4831356 0.131199,2.6761006 -0.579564,4.1440836 -0.78438,1.620031 -2.031506,3.245614 -3.982261,5.190731 -0.389003,0.387878 -0.836295,0.823017 -0.993981,0.966975 l -0.286703,0.261741 z m 0.61108,-3.222531 c 0.21792,-0.09865 0.410141,-0.286966 0.522572,-0.51196 0.188487,-0.377197 0.128268,-0.848063 -0.147716,-1.155025 -0.07912,-0.088 -0.224191,-0.204498 -0.32238,-0.258885 -0.160761,-0.08905 -0.208422,-0.09889 -0.478944,-0.09889 -0.270522,0 -0.318183,0.0098 -0.478944,0.09889 -0.09819,0.05439 -0.24326,0.170886 -0.32238,0.258885 -0.505124,0.56182 -0.22316,1.509921 0.510665,1.717104 0.200214,0.05653 0.532904,0.03328 0.717127,-0.05012 z m -0.02523,-3.096325 c 0.199197,-0.101954 0.331016,-0.322013 0.415782,-0.694109 0.106149,-0.465955 0.254861,-0.690607 0.922841,-1.394085 0.52446,-0.552331 0.784543,-0.9228794 0.956805,-1.363186 C 14.828784,9.0419883 14.865179,8.7902477 14.845201,8.3522634 14.809993,7.5803993 14.51293,6.9871917 13.947406,6.5594538 13.696234,6.3694776 13.280086,6.1638171 13.001391,6.0919319 12.209578,5.887696 11.199332,5.9840499 10.498337,6.3306649 9.7491615,6.7011035 9.3334465,7.2590864 9.3916626,7.8160707 c 0.034483,0.3299178 0.1666785,0.5012922 0.4502861,0.583739 0.3446743,0.1001999 0.5790373,0.0058 1.0064523,-0.405373 0.440136,-0.4234161 0.722817,-0.5365105 1.274602,-0.5099399 0.293245,0.014121 0.353642,0.028641 0.575784,0.1384296 0.428216,0.2116359 0.619711,0.506905 0.619711,0.9555428 0,0.4750591 -0.142456,0.7016345 -0.821372,1.3063868 -0.501079,0.446342 -0.730564,0.7138 -0.910117,1.060715 -0.450513,0.870436 -0.385375,1.729096 0.145953,1.923995 0.180027,0.06604 0.500059,0.0476 0.668273,-0.03849 z"
     id="path2804"
     transform="matrix(40,0,0,40,0,-960)" />
</svg>
